<svg width="1672" height="1672" viewBox="0 0 1672 1672" fill="none" xmlns="http://www.w3.org/2000/svg">
<rect width="1672" height="1672" rx="836" fill="#090909"/>
<path d="M668.667 293.953C665.2 295.153 663.067 297.153 660.4 302.22C652 317.42 642.8 345.153 636.134 374.887C621.6 440.487 624 510.22 642.8 570.22C644.534 576.087 646.4 581.953 646.8 583.153C647.334 585.153 646.667 585.553 643.067 585.553C640.667 585.553 635.334 584.62 631.334 583.553C620.4 580.62 616.934 580.887 615.067 585.02C612.667 590.22 617.6 598.353 633.067 614.487L646.134 627.953L638.667 629.553C627.6 631.82 627.734 631.553 624.534 665.02C622.8 684.353 623.067 685.287 633.734 690.887C647.334 697.953 650.4 702.087 652 715.687C652.8 723.553 652.8 723.953 646.267 735.287C630.134 763.287 610 788.62 583.067 814.887C567.467 830.087 564.667 833.553 564.667 836.887C564.667 841.42 575.067 860.62 587.334 878.887C617.867 924.353 662.134 965.153 711.334 993.553C716.8 996.62 722 999.82 722.934 1000.49C724.134 1001.42 722.4 1004.62 716.267 1012.35C709.067 1021.42 707.6 1022.75 704.667 1022.09C698.667 1020.75 676.534 1009.69 659.067 999.287C617.734 974.62 578.267 939.687 538 892.087C529.734 882.22 522 874.22 520.934 874.22C519.867 874.22 517.734 878.487 515.467 885.82C508 908.62 494.934 928.487 474 948.753C447.867 973.953 414 989.687 382 991.82C375.067 992.22 368.934 993.287 368.4 994.087C367.334 995.687 371.867 1004.35 387.067 1029.55C439.334 1116.35 499.467 1180.75 576.667 1232.35C595.6 1245.15 593.6 1241.29 596.534 1270.22C597.334 1278.22 600.134 1305.02 602.8 1329.55C607.067 1369.15 607.867 1374.49 610.267 1376.49C612.8 1378.75 621.6 1378.89 754.8 1378.89C848.934 1378.89 896.8 1378.49 897.334 1377.55C897.867 1376.75 888 1350.89 875.6 1319.82C850.8 1258.22 827.334 1196.62 827.334 1193.29C827.334 1191.95 830.667 1190.09 837.734 1187.55C857.334 1180.62 885.467 1164.62 893.734 1155.82L896.4 1152.89L892.8 1148.49L889.067 1144.09L868.534 1154.09C835.467 1170.22 804.934 1179.02 781.734 1179.42C768.934 1179.55 764.934 1177.82 760.4 1170.09C754.934 1160.75 750.4 1121.82 751.867 1096.89C753.734 1066.62 761.334 1026.62 766.8 1018.09C769.734 1013.82 775.334 1010.89 780.934 1010.89C786.8 1010.89 807.2 1016.62 819.467 1021.55C844.134 1031.69 867.734 1045.42 889.734 1062.35L900.8 1070.89L904.934 1068.75C908.534 1066.89 911.6 1066.62 922.667 1067.42C930 1067.82 941.334 1069.02 947.734 1070.09C958.134 1071.82 961.067 1073.02 968 1078.09C969.2 1079.02 974 1077.42 982.934 1073.29C1013.2 1059.15 1045.33 1051.69 1076 1051.69C1099.47 1051.55 1103.2 1052.75 1107.47 1061.95C1114.27 1077.02 1107.6 1133.69 1094.4 1173.82C1084.53 1203.95 1077.33 1213.55 1064.67 1213.55C1046 1213.55 1007.07 1192.75 974.934 1165.55L960.534 1153.42L956.667 1156.49C954.534 1158.22 952.8 1160.22 952.8 1161.15C952.534 1166.09 978.4 1192.49 994.667 1203.69C1000.8 1208.09 1005.87 1212.22 1005.87 1212.89C1006 1214.35 1003.47 1218.62 944 1316.22C925.067 1347.29 909.467 1374.09 909.467 1375.55L909.334 1378.22L1106.53 1378.62C1276.4 1378.89 1304.13 1378.62 1306.67 1377.02C1309.33 1375.29 1309.87 1373.15 1311.33 1357.55C1313.73 1333.29 1312.4 1291.29 1308.8 1270.22C1299.87 1219.42 1280.53 1178.49 1249.6 1144.89C1226.93 1120.35 1194.67 1099.15 1162 1087.69C1155.07 1085.15 1149.2 1082.62 1148.93 1081.82C1148.67 1081.02 1150.53 1080.09 1152.93 1079.69C1155.33 1079.29 1165.47 1077.69 1175.33 1076.22C1247.07 1065.29 1312.93 1037.95 1364.53 997.82C1388.67 979.02 1418 947.953 1418 941.287C1418 939.42 1415.2 934.22 1411.33 929.153C1390.27 901.42 1374.53 870.887 1364.67 839.153L1360.4 825.287L1363.33 817.153C1368.13 803.953 1372.27 800.487 1388.53 796.887C1395.33 795.287 1398.67 793.82 1400 791.82C1401.87 788.753 1408.67 754.22 1408.67 747.287C1408.67 742.753 1405.2 739.153 1396.67 734.887L1390.8 731.82L1395.87 729.02C1404.4 724.353 1421.07 711.687 1425.73 706.353C1434.4 696.487 1430.13 692.22 1411.73 692.22C1405.07 692.22 1399.2 691.687 1398.67 690.887C1398.27 690.22 1402 681.42 1407.07 671.287C1436.53 612.62 1456 539.687 1460.8 470.753C1462.67 442.353 1459.73 406.087 1454.8 396.353C1451.2 389.42 1442.8 387.953 1429.87 391.687C1383.87 405.287 1290.8 463.02 1211.87 527.153C1202.93 534.353 1195.33 540.22 1194.93 540.22C1194.53 540.22 1189.2 537.153 1183.07 533.287C1166.8 523.153 1131.73 506.487 1113.33 500.22C1091.47 492.753 1065.07 486.22 1042 482.753C1026.53 480.353 1016.53 479.82 992 479.82C960.134 479.687 945.6 481.153 915.467 487.153L901.6 489.953L891.467 478.753C832.4 413.553 756.667 344.753 706.667 310.62C681.467 293.42 676.667 291.287 668.667 293.953ZM813.334 653.02C876.134 659.953 928.667 678.62 948.667 701.153C955.334 708.62 962 721.82 962.934 729.687C963.334 732.62 964.534 735.42 965.467 735.82C966.4 736.22 970.4 735.82 974.267 734.887C985.334 732.487 1009.6 733.153 1023.33 736.22C1030 737.553 1040.4 741.153 1046.67 744.087C1058.93 749.82 1058 750.087 1063.6 740.22C1068.13 732.353 1079.87 721.42 1088.13 717.153C1104.13 709.02 1124.93 705.553 1156.67 705.553C1219.47 705.553 1292.27 722.087 1323.07 743.153C1339.6 754.487 1343.07 777.287 1334.4 816.22C1320 881.287 1289.33 921.953 1246.67 932.887C1207.47 942.887 1149.07 933.953 1112.13 912.353C1100.67 905.687 1084.93 891.287 1078.27 881.287C1063.2 859.153 1053.87 828.753 1051.87 795.287C1051.33 786.887 1050.27 779.687 1049.2 777.953C1046.67 773.82 1029.73 765.82 1018.67 763.553C999.734 759.553 971.734 761.82 965.867 767.82C964.534 769.153 962 775.02 960 780.887C958.134 786.753 953.334 798.22 949.467 806.353C929.334 848.22 904.667 870.487 866.667 880.353C855.867 883.287 852 883.553 828.667 883.42C805.734 883.42 800.667 882.887 785.467 879.687C730.667 868.22 701.467 843.153 687.467 795.553C678.4 764.62 677.2 723.02 684.667 693.553C692.4 662.22 703.6 654.22 743.6 650.887C760.4 649.553 790.134 650.487 813.334 653.02ZM1009.33 863.42C1035.6 869.287 1044.67 874.487 1044.67 883.953C1044.67 891.553 1040.93 895.42 1026.8 902.353C1016.8 907.42 1012.8 910.353 1003.87 919.687C994.8 929.153 992.534 930.887 988.8 930.887C981.867 930.887 979.467 928.753 973.867 917.153C967.6 904.353 966.8 903.42 954.934 893.02C949.867 888.62 944.934 883.42 943.867 881.42C939.867 873.553 942.534 865.687 950.534 862.087C956 859.553 995.867 860.487 1009.33 863.42Z" fill="white"/>
<path d="M457.333 468.887C444.133 473.687 387.733 493.287 332 512.753C157.2 573.687 120.267 586.753 117.6 589.153C113.6 592.753 110 600.887 110 606.22C110 608.753 114.133 624.22 119.2 640.62C151.6 744.487 181.6 840.753 186.267 856.22C192.533 876.353 194.667 880.22 201.2 883.42C208.4 886.753 215.2 885.953 233.467 879.42C242.933 876.087 263.333 868.887 278.667 863.553C318.133 849.687 349.067 838.353 351.067 837.153C352 836.487 352.667 833.02 352.667 828.353C352.667 806.753 367.2 783.02 386.667 772.62C398.667 766.353 407.467 764.22 421.467 764.22C442.8 764.22 463.6 772.487 480.267 787.42L486.933 793.553L531.467 777.953C577.067 762.087 581.2 760.22 585.467 751.953C589.467 744.353 588 738.487 560 647.287C544.933 598.22 527.467 541.42 521.2 520.887C514.933 500.353 508.933 480.753 507.867 477.42C504.667 467.287 495.2 460.087 485.6 460.353C483.2 460.353 470.533 464.22 457.333 468.887ZM487.6 492.353C489.067 494.22 490.533 498.22 490.933 501.287C491.6 506.087 490.933 507.953 485.6 516.487C482.4 521.82 469.2 543.287 456.4 564.22C443.467 585.153 428.133 609.953 422.267 619.42L411.467 636.62L414.133 640.353C418.533 646.62 424.667 661.153 425.6 667.553C426 670.887 427.067 674.087 427.867 674.753C428.667 675.42 442.8 681.02 459.333 687.287C495.067 700.887 538.133 717.553 549.6 722.353C556.667 725.287 558.133 726.487 559.867 731.02C563.333 739.553 559.333 745.553 550.133 745.553C547.867 745.553 541.733 743.82 536.4 741.687C514.533 733.02 431.733 701.687 428.667 700.887C425.6 700.22 425.067 700.753 422.267 708.753C406 754.22 350.8 773.02 311.867 746.22C308 743.553 304.133 741.687 303.333 742.22C302.533 742.62 285.067 768.353 264.533 799.287C243.867 830.22 226.133 856.353 224.933 857.153C221.733 859.82 214.8 859.287 212 856.22C210.8 854.887 209.467 851.153 209.067 847.953C208.533 842.353 209.2 841.153 248.533 782.087L288.667 721.82L285.467 714.753C282.133 707.153 279.467 696.22 278.933 687.687L278.667 682.487L209.333 654.887L140 627.42L137.467 619.953C134.933 612.887 134.933 612.353 137.067 609.02C138.8 606.487 140.533 605.553 143.733 605.553C146.267 605.553 176.4 616.887 215.067 632.22C252 646.887 282.533 658.887 283.067 658.753C283.6 658.753 286 654.487 288.533 649.153C296.8 631.82 315.467 616.487 335.333 610.753C338.667 609.82 347.067 609.02 354 609.02C367.6 609.02 376.267 611.153 387.733 617.287C391.867 619.42 394.533 620.22 395.067 619.42C399.067 613.287 446.4 536.753 461.333 512.22C467.733 501.553 474.267 491.82 475.733 490.487C479.333 487.287 484.533 488.087 487.6 492.353Z" fill="white"/>
<path d="M408.667 792.087C396.134 796.22 385.067 806.353 381.467 817.153C378.534 825.687 378.8 837.287 382.134 847.02C383.734 851.42 384.667 855.287 384.534 855.42C384.267 855.687 379.467 856.887 374 858.22C360.534 861.42 322.267 875.42 319.467 878.087C317.867 879.82 317.334 882.753 317.467 891.287C318 916.62 333.334 942.62 357.334 958.22C365.067 963.287 365.6 963.42 376.667 963.42C418.534 963.153 468.534 927.553 486.4 885.153C493.734 867.687 492.8 852.087 483.2 834.087C473.334 815.82 461.6 804.22 444 796.087C436.134 792.353 432.934 791.687 423.334 791.287C417.067 791.153 410.534 791.42 408.667 792.087Z" fill="white"/>
</svg>
